<svg xmlns="http://www.w3.org/2000/svg" viewBox="0 0 664 302.2"><path d="M50.7 292.5c-4.5 4-10.4 6-17.7 6-5.5 0-10.9-1.5-15.6-4.2-1.7-1-3.2-2.2-4.6-3.6-1-.9-1.9-1.8-2.7-2.8-.3-.4-.6-.9-.8-1.3l-3.2 3.2 1 1.2c.9 1.2 2 2.3 3.2 3.2 1.6 1.3 3.4 2.5 5.2 3.6 2.4 1.4 5 2.4 7.7 3.1 3.2.9 6.5 1.3 9.8 1.3 8.2 0 15-2.4 20.3-7.1 5.1-4.3 8-10.6 7.9-17.2.1-3.7-.9-7.3-2.8-10.4-1.8-2.8-4.2-5.1-7.1-6.7-3.1-1.6-6.3-3-9.6-4.1-3.5-1.2-7-2.3-10.6-3.3-3.3-.9-6.5-2.1-9.6-3.5-2.8-1.3-5.2-3.2-7.1-5.6-1.9-2.5-2.8-5.6-2.7-8.8-.1-5.3 2.3-10.4 6.4-13.8 4.3-3.7 10.1-5.6 17.3-5.6 2.6 0 5.2.4 7.7 1.1 2.1.6 4.1 1.4 6 2.4 1.5.9 2.9 1.9 4.2 3.1.9.8 1.8 1.6 2.6 2.4.3.3.6.7.8 1l3.1-3.1-1-1.1c-1-1-2-1.9-3.1-2.7-1.5-1.1-3.2-2.1-4.9-3.1-2.2-1.1-4.5-2-6.9-2.6-2.8-.8-5.6-1.1-8.5-1.1-8.2 0-14.8 2.2-19.9 6.7-4.9 4-7.7 10.1-7.6 16.4-.1 3.6.8 7.1 2.7 10.2 1.8 2.7 4.2 5 7.1 6.5 3.1 1.6 6.3 3 9.7 4.1 3.5 1.2 7.1 2.3 10.6 3.3 3.3 1 6.5 2.2 9.6 3.6 2.8 1.3 5.2 3.3 7.1 5.8 1.9 2.6 2.8 5.8 2.7 9 .1 5.4-2.4 10.8-6.7 14.5zm39.2-75.3h29.4v83.7h3.8v-83.7h29.4v-3.8H89.9v3.8zm98.8 53.1l21.9-52.5 21.9 52.5h-43.8zm56.3 30.6h3.8l-36.3-87.5h-3.8l-36.3 87.5h3.8l11.2-26.9h46.3l11.3 26.9zm43.2 0h3.7v-37.5h30.7l21.3 37.5h4.4l-21.9-38.1 2-.4c1.8-.5 3.5-1.2 5.1-2.1 2.1-1.2 4-2.5 5.9-4.1 2.2-2 3.9-4.4 5-7.1 1.4-3.4 2.1-7 2.1-10.7.2-6.7-2.5-13.3-7.3-17.9-4.9-4.7-11.2-7.1-18.9-7.1h-31.9l-.2 87.5zm48.2-77.9c4.1 3.9 6.1 9 6.1 15.4s-2 11.5-6.1 15.4c-4.1 3.9-9.5 5.9-16.4 5.9h-28.2v-42.5H320c6.9 0 12.4 1.9 16.4 5.8zm40.6-5.8h29.4v83.7h3.8v-83.7h29.4v-3.8H377v3.8zm104.4 40h43.8v-3.7h-43.8v-36.3h53.8v-3.8h-57.5v87.5h58.8v-3.7h-55v-40zm95.7 43.7h3.7v-37.5h30.7l21.3 37.5h4.4l-21.9-38.1 2-.4c1.8-.5 3.5-1.2 5.1-2.1 2.1-1.2 4-2.5 5.9-4.1 2.2-2 3.9-4.4 5-7.1 1.4-3.4 2.1-7 2.1-10.7.2-6.7-2.5-13.3-7.3-17.9-4.9-4.7-11.2-7.1-18.9-7.1h-31.9l-.2 87.5zm48.3-77.9c4.1 3.9 6.1 9 6.1 15.4 0 6.3-2 11.5-6.1 15.4-4.1 3.9-9.5 5.9-16.4 5.9h-28.2v-42.5H609c6.8 0 12.3 1.9 16.4 5.8z" fill="#ccc"/><path d="M23.7 0H0v174.8h27.5V47.5l63.7 79.8L155 47.5v127.3h27.5V0h-23.8L91.2 85 23.7 0zm198.6 174.8l18.8-46.2h77.5l18.8 46.2h28.7L293.6 0h-27.5l-72.5 174.8h28.7zm86.3-71.2h-57.5l28.8-72.4 28.7 72.4zM337.3 0L401 112.4v62.4h27.5v-62.4L492.3 0h-30l-47.5 83.6L367.3 0h-30z" fill="#333"/><path d="M534.5 175.8c-13-.9-19.7-5.6-23.2-10.8.7-12.6 2.6-28.3 8-42.6 3.1-8.2 7.5-15.6 13-21 5.9-6.5 11.4-11.5 16.9-15.6 10.9-8.1 20.4-11.6 23.5-12.8 3.1-1.2 8.5-3.4 15.2-5.9 6.6-2.3 14.6-5.5 21.5-9.6 14-7.7 25.6-16.3 25.6-16.3s-12.4 6.9-26.8 12.6c-7.3 3.1-14.7 5.2-21.7 6.8-6.8 1.8-12.6 3.6-15.8 4.8-5.9 2.5-41.6 13.9-59.8 52.1-4.1 9.8-6.7 19.9-8.4 29.3-4.1-2.3-9.2-6.8-10.6-15.1-2.4-14.5-1.1-58 38.3-82.1 39.4-24.1 83.4-19.3 104.4-26.4C655.6 16.1 664 0 664 0s-17.5 163.9-129.5 175.8z" fill="#00be00"/></svg>